# xmcd
#
# Track frame offsets: 
#        150
#        12862
#        22612
#        37012
#        56007
#        72742
#        85947
#        104080
#        118077
#        134357
#        148470
#        177645
#        189942
#        202977
#        221517
#        235220
#        249232
#        262300
#        279540
#        294722
#
# Disc length: 4085 seconds
#
# Revision: 3
# Processed by: cddbd v1.5.2PL0 Copyright (c) Steve Scherf et al.
# Submitted via: ExactAudioCopyFreeDBPlugin 1.0
#
DISCID=3e0ff314
DTITLE=Various Artist - Let There Be Love
DYEAR=1998
DGENRE=Jazz
TTITLE0=Nat King Cole - Let There Be Love
TTITLE1=Dinah Washington - Baby Won't You Please Come Home
TTITLE2=Louis Armstrong and Duke Ellington - I'm Just A Lucky So And So
TTITLE3=Nina Simone - I Loves You Porgy
TTITLE4=Billie Holiday - Our Love Is Here To Stay
TTITLE5=Nancy Wilson - The Very Thought Of You
TTITLE6=Louis Armstrong and Duke Ellington - Mood Indigo
TTITLE7=Eartha Kitt - My Heart Belongs To Daddy
TTITLE8=Dinah Shore - My Funny Valentine
TTITLE9=Peggy Lee - Basin Street Blues
TTITLE10=Houston Person - God Bless The Child
TTITLE11=Dinah Washington - Let Me Be The First To Know
TTITLE12=Nina Simone - Since I Fell For You
TTITLE13=Sonny Rollins - 'Round Midnight
TTITLE14=Sarah Vaughan - Misty
TTITLE15=Louis Armstrong - I Want A Little Girl
TTITLE16=Julie London - Love Letters
TTITLE17=Nat King Cole - These Foolish Things
TTITLE18=Benny Goodman - Memories Of You
TTITLE19=Duke Ellington - I Got It Bad And That Ain't Good
EXTD=YEAR: 1998
EXTT0=
EXTT1=
EXTT2=
EXTT3=
EXTT4=
EXTT5=
EXTT6=
EXTT7=
EXTT8=
EXTT9=
EXTT10=
EXTT11=
EXTT12=
EXTT13=
EXTT14=
EXTT15=
EXTT16=
EXTT17=
EXTT18=
EXTT19=
PLAYORDER=
